<?xml version="1.0" encoding="UTF-8" standalone="no"?>
<!-- Created with Inkscape (http://www.inkscape.org/) -->

<svg
   viewBox="0 0 135.46667 135.46667"
   version="1.1"
   id="svg1"
   xml:space="preserve"
   inkscape:version="1.4.3 (0d15f75, 2025-12-25)"
   sodipodi:docname="logo2.svg"
   xmlns:inkscape="http://www.inkscape.org/namespaces/inkscape"
   xmlns:sodipodi="http://sodipodi.sourceforge.net/DTD/sodipodi-0.dtd"
   xmlns="http://www.w3.org/2000/svg"
   xmlns:svg="http://www.w3.org/2000/svg"><sodipodi:namedview
     id="namedview1"
     pagecolor="#505050"
     bordercolor="#eeeeee"
     borderopacity="1"
     inkscape:showpageshadow="0"
     inkscape:pageopacity="0"
     inkscape:pagecheckerboard="0"
     inkscape:deskcolor="#505050"
     inkscape:document-units="px"
     inkscape:zoom="1"
     inkscape:cx="383.5"
     inkscape:cy="127.5"
     inkscape:window-width="2560"
     inkscape:window-height="1369"
     inkscape:window-x="3832"
     inkscape:window-y="-8"
     inkscape:window-maximized="1"
     inkscape:current-layer="layer1" /><defs
     id="defs1"><inkscape:path-effect
       effect="powerclip"
       message=""
       id="path-effect3"
       is_visible="true"
       lpeversion="1"
       inverse="true"
       flatten="false"
       hide_clip="false" /><inkscape:path-effect
       effect="powerclip"
       message=""
       id="path-effect10"
       is_visible="true"
       lpeversion="1"
       inverse="true"
       flatten="false"
       hide_clip="false" /><clipPath
       clipPathUnits="userSpaceOnUse"
       id="clipPath11"><circle
         style="fill:#ea6819;fill-opacity:1;stroke-width:0.272971"
         id="circle11"
         clip-path="none"
         r="16.10622"
         cy="134.92332"
         cx="39.6357" /></clipPath><clipPath
       clipPathUnits="userSpaceOnUse"
       id="clipPath12"><circle
         style="fill:#ea6819;fill-opacity:1;stroke-width:0.272971"
         id="circle12"
         clip-path="none"
         r="16.10622"
         cy="134.92332"
         cx="39.6357" /></clipPath><clipPath
       clipPathUnits="userSpaceOnUse"
       id="clipPath13"><circle
         style="fill:#ea6819;fill-opacity:1;stroke-width:0.272971"
         id="circle13"
         clip-path="none"
         r="16.10622"
         cy="134.92332"
         cx="39.6357" /></clipPath><clipPath
       clipPathUnits="userSpaceOnUse"
       id="clipPath14"><circle
         style="fill:#ea6819;fill-opacity:1;stroke-width:0.272971"
         id="circle14"
         clip-path="none"
         r="16.10622"
         cy="134.92332"
         cx="39.6357" /></clipPath><clipPath
       clipPathUnits="userSpaceOnUse"
       id="clipPath10"><path
         style="baseline-shift:baseline;display:none;overflow:visible;opacity:1;vector-effect:none;fill:#ffffff;stroke-width:1;stroke-linecap:square;stroke-linejoin:round;enable-background:accumulate;stop-color:#000000;stop-opacity:1"
         d="m 40.69531,117.92969 -0.417967,0.9082 0.455079,0.20899 c 0,0 1.642488,0.74013 3.396482,3.2246 1.374253,1.94658 2.754758,5.00611 3.359376,9.54102 -3.245112,-0.37627 -5.649153,-2.61776 -8.796876,-4.89844 a 0.50005,0.50005 0 0 0 -0.0039,-0.002 c -4.558004,-3.25962 -8.121472,-4.20972 -10.375,-4.27539 l -0.499999,-0.0156 -0.0293,1 0.5,0.0156 c 2.001792,0.0583 5.392361,0.91849 9.824219,4.08789 3.125715,2.26529 5.739348,4.7662 9.464845,5.10937 0.07796,0.75806 0.159021,1.50808 0.189452,2.34766 -6.546699,0.26718 -14.630865,0.31126 -24.544921,-0.62109 l -0.498047,-0.0469 -0.09375,0.9961 0.498046,0.0469 c 9.965982,0.93724 18.086441,0.89299 24.68164,0.62305 0.0236,0.93038 -0.03867,1.78417 -0.123044,2.61718 -1.671327,0.17437 -3.141662,0.69198 -4.503909,1.5 -1.584023,0.93958 -3.104107,2.15057 -4.939452,3.35157 a 0.50005,0.50005 0 0 0 -0.002,0.002 c -4.343734,2.87426 -7.577519,2.68675 -9.748048,2.75 l -0.499999,0.0137 0.0293,1 0.5,-0.0137 c 2.084416,-0.0607 5.714535,0.0991 10.269531,-2.91406 l 0.002,-0.002 c 1.87941,-1.23002 3.399939,-2.43927 4.898437,-3.32812 1.232763,-0.73122 2.487506,-1.16542 3.900391,-1.34375 -1.186219,7.7104 -6.548828,10.9707 -6.548828,10.9707 l -0.425782,0.25977 0.521486,0.85351 0.425782,-0.25976 c 0,0 5.888775,-3.63978 7.070311,-11.94336 1.171446,0.0806 1.969758,0.41982 2.50586,0.89844 0.566341,0.50561 0.8857,1.16725 1.058592,1.85547 0.345788,1.37642 0.06836,2.77734 0.06836,2.77734 l -0.101563,0.48828 0.978516,0.20313 0.101561,-0.48829 c 0,0 0.338412,-1.57238 -0.07617,-3.22265 -0.207293,-0.82514 -0.612015,-1.68867 -1.363283,-2.35938 -0.715799,-0.63904 -1.759437,-1.05935 -3.123046,-1.15039 0.07789,-0.8236 0.148699,-1.65472 0.124999,-2.56445 2.459961,-0.11904 5.537325,-0.16792 7.128907,-0.35156 l 0.498048,-0.0566 -0.115236,-0.99414 -0.496094,0.0586 c -1.560282,0.18003 -4.62327,0.22801 -7.060545,0.3457 -0.02939,-0.80126 -0.111293,-1.51639 -0.183593,-2.24804 1.360856,-0.0976 2.43124,-0.55986 3.148436,-1.28907 0.782594,-0.7957 1.193781,-1.81813 1.408203,-2.80664 0.428845,-1.97702 0.08789,-3.89453 0.08789,-3.89453 l -0.08594,-0.49219 -0.984374,0.16993 0.08398,0.49414 c 0,0 0.298392,1.77399 -0.07813,3.50976 -0.188256,0.86789 -0.542029,1.70577 -1.14453,2.31836 -0.552861,0.56212 -1.360513,0.92639 -2.515625,1.00391 -0.610378,-4.79367 -2.058959,-8.09474 -3.548829,-10.20508 -1.874281,-2.65485 -3.798826,-3.55469 -3.79883,-3.55469 z"
         id="path10" /><path
         id="lpe_path-effect10"
         style="baseline-shift:baseline;display:inline;overflow:visible;opacity:1;vector-effect:none;fill:#ffffff;stroke-width:1;stroke-linecap:square;stroke-linejoin:round;enable-background:accumulate;stop-color:#000000;stop-opacity:1"
         class="powerclip"
         d="m 18.529476,113.8171 h 42.212441 v 42.21244 H 18.529476 Z m 22.165834,4.11259 -0.417967,0.9082 0.455079,0.20899 c 0,0 1.642488,0.74013 3.396482,3.2246 1.374253,1.94658 2.754758,5.00611 3.359376,9.54102 -3.245112,-0.37627 -5.649153,-2.61776 -8.796876,-4.89844 a 0.50005,0.50005 0 0 0 -0.0039,-0.002 c -4.558004,-3.25962 -8.121472,-4.20972 -10.375,-4.27539 l -0.499999,-0.0156 -0.0293,1 0.5,0.0156 c 2.001792,0.0583 5.392361,0.91849 9.824219,4.08789 3.125715,2.26529 5.739348,4.7662 9.464845,5.10937 0.07796,0.75806 0.159021,1.50808 0.189452,2.34766 -6.546699,0.26718 -14.630865,0.31126 -24.544921,-0.62109 l -0.498047,-0.0469 -0.09375,0.9961 0.498046,0.0469 c 9.965982,0.93724 18.086441,0.89299 24.68164,0.62305 0.0236,0.93038 -0.03867,1.78417 -0.123044,2.61718 -1.671327,0.17437 -3.141662,0.69198 -4.503909,1.5 -1.584023,0.93958 -3.104107,2.15057 -4.939452,3.35157 a 0.50005,0.50005 0 0 0 -0.002,0.002 c -4.343734,2.87426 -7.577519,2.68675 -9.748048,2.75 l -0.499999,0.0137 0.0293,1 0.5,-0.0137 c 2.084416,-0.0607 5.714535,0.0991 10.269531,-2.91406 l 0.002,-0.002 c 1.87941,-1.23002 3.399939,-2.43927 4.898437,-3.32812 1.232763,-0.73122 2.487506,-1.16542 3.900391,-1.34375 -1.186219,7.7104 -6.548828,10.9707 -6.548828,10.9707 l -0.425782,0.25977 0.521486,0.85351 0.425782,-0.25976 c 0,0 5.888775,-3.63978 7.070311,-11.94336 1.171446,0.0806 1.969758,0.41982 2.50586,0.89844 0.566341,0.50561 0.8857,1.16725 1.058592,1.85547 0.345788,1.37642 0.06836,2.77734 0.06836,2.77734 l -0.101563,0.48828 0.978516,0.20313 0.101561,-0.48829 c 0,0 0.338412,-1.57238 -0.07617,-3.22265 -0.207293,-0.82514 -0.612015,-1.68867 -1.363283,-2.35938 -0.715799,-0.63904 -1.759437,-1.05935 -3.123046,-1.15039 0.07789,-0.8236 0.148699,-1.65472 0.124999,-2.56445 2.459961,-0.11904 5.537325,-0.16792 7.128907,-0.35156 l 0.498048,-0.0566 -0.115236,-0.99414 -0.496094,0.0586 c -1.560282,0.18003 -4.62327,0.22801 -7.060545,0.3457 -0.02939,-0.80126 -0.111293,-1.51639 -0.183593,-2.24804 1.360856,-0.0976 2.43124,-0.55986 3.148436,-1.28907 0.782594,-0.7957 1.193781,-1.81813 1.408203,-2.80664 0.428845,-1.97702 0.08789,-3.89453 0.08789,-3.89453 l -0.08594,-0.49219 -0.984374,0.16993 0.08398,0.49414 c 0,0 0.298392,1.77399 -0.07813,3.50976 -0.188256,0.86789 -0.542029,1.70577 -1.14453,2.31836 -0.552861,0.56212 -1.360513,0.92639 -2.515625,1.00391 -0.610378,-4.79367 -2.058959,-8.09474 -3.548829,-10.20508 -1.874281,-2.65485 -3.798826,-3.55469 -3.79883,-3.55469 z" /></clipPath></defs><g
     inkscape:label="Layer 1"
     inkscape:groupmode="layer"
     id="layer1"><g
       id="g9"
       transform="translate(0,-12.361149)"><path
         style="fill:#ff7f50;fill-opacity:1;stroke-width:0.27297"
         id="path1"
         clip-path="url(#clipPath10)"
         transform="rotate(140,46.232132,102.32003)"
         inkscape:label="ball"
         inkscape:path-effect="#path-effect10"
         sodipodi:type="arc"
         sodipodi:cx="39.635696"
         sodipodi:cy="134.92332"
         sodipodi:rx="16.10622"
         sodipodi:ry="16.10622"
         d="m 55.741917,134.92332 a 16.10622,16.10622 0 0 1 -16.106221,16.10622 16.10622,16.10622 0 0 1 -16.10622,-16.10622 16.10622,16.10622 0 0 1 16.10622,-16.10622 16.10622,16.10622 0 0 1 16.106221,16.10622 z" /><path
         id="path5"
         style="baseline-shift:baseline;display:inline;overflow:visible;opacity:1;vector-effect:none;fill:#4682b4;fill-opacity:1;stroke-linecap:round;stroke-linejoin:round;stroke-dasharray:1.5875, 4.7625;paint-order:stroke markers fill;enable-background:accumulate;stop-color:#000000;stop-opacity:1"
         d="m 108.81145,65.141245 a 0.79374999,0.79374999 0 0 0 -0.0439,0.06563 c -0.2779,0.46582 -0.54331,0.937551 -0.79891,1.412317 a 0.79374999,0.79374999 0 0 0 0.32246,1.074353 0.79374999,0.79374999 0 0 0 1.0759,-0.322461 c 0.24607,-0.457065 0.49946,-0.908288 0.76378,-1.351339 a 0.79374999,0.79374999 0 0 0 -0.0439,-0.878499 z m -34.233571,2.673222 a 0.79374999,0.79374999 0 0 0 -0.484209,0.160197 c -0.444955,0.335366 -0.870518,0.692973 -1.277441,1.066602 a 0.79374999,0.79374999 0 0 0 -0.04651,1.120861 0.79374999,0.79374999 0 0 0 1.120862,0.04703 c 0.372582,-0.342097 0.757852,-0.665218 1.158069,-0.966866 a 0.79374999,0.79374999 0 0 0 0.15658,-1.113627 0.79374999,0.79374999 0 0 0 -0.523483,-0.306442 0.79374999,0.79374999 0 0 0 -0.103869,-0.0078 z m 15.775264,1.478463 a 0.79374999,0.79374999 0 0 0 -0.490926,0.180351 c 0.09283,0.474495 0.166428,0.960917 0.220659,1.459342 0.257055,0.270659 0.505935,0.550434 0.747241,0.837158 a 0.79374999,0.79374999 0 0 0 1.117244,0.0956 0.79374999,0.79374999 0 0 0 0.09767,-1.119312 C 91.69097,70.325367 91.319908,69.919207 90.929853,69.527539 A 0.79374999,0.79374999 0 0 0 90.353143,69.29293 Z M 50.14061,71.598732 a 0.79374999,0.79374999 0 0 0 -0.773596,0.7059 0.79374999,0.79374999 0 0 0 0.701249,0.876949 c 0.436576,0.04826 0.87195,0.171206 1.281576,0.357601 A 0.79374999,0.79374999 0 0 0 52.402487,73.144374 0.79374999,0.79374999 0 0 0 52.00768,72.093792 C 51.454331,71.841997 50.859747,71.67145 50.243963,71.603383 a 0.79374999,0.79374999 0 0 0 -0.103353,-0.0047 z m 20.062342,0.814938 a 0.79374999,0.79374999 0 0 0 -0.103353,0.01033 0.79374999,0.79374999 0 0 0 -0.515731,0.320394 l -0.177767,0.24598 a 0.79382936,0.79382936 0 0 0 -0.0078,0.01137 l -0.314193,0.453203 a 0.79382936,0.79382936 0 0 0 -0.0078,0.0098 l -0.309026,0.460954 a 0.79382936,0.79382936 0 0 0 -0.0057,0.0098 l -0.09767,0.150378 a 0.79374999,0.79374999 0 0 0 0.236161,1.097607 0.79374999,0.79374999 0 0 0 1.097607,-0.236161 l 0.09198,-0.142627 0.302824,-0.451135 0.306442,-0.441317 0.174149,-0.240295 A 0.79374999,0.79374999 0 0 0 70.691294,72.562498 0.79374999,0.79374999 0 0 0 70.202952,72.41367 Z m 23.975798,1.962671 a 0.79374999,0.79374999 0 0 0 -0.432532,0.105936 0.79374999,0.79374999 0 0 0 -0.287321,1.086239 l 0.127124,0.218591 c 0.20401,0.357922 0.402813,0.716957 0.592729,1.077454 z m -38.981601,0.805118 a 0.79374999,0.79374999 0 0 0 -0.488342,0.150379 0.79374999,0.79374999 0 0 0 -0.177767,1.107426 l 0.125057,0.174149 c 0.252016,0.357598 0.49253,0.722564 0.720886,1.095541 a 0.79374999,0.79374999 0 0 0 0.559656,0.371553 v -2.406054 l -0.120406,-0.164848 a 0.79374999,0.79374999 0 0 0 -0.515214,-0.318327 0.79374999,0.79374999 0 0 0 -0.10387,-0.0098 z m 49.722551,1.626774 v 1.069186 c 0.0473,-0.133828 0.0948,-0.267552 0.14262,-0.401009 a 0.79374999,0.79374999 0 0 0 -0.061,-0.668177 z m -37.962028,1.043348 a 0.79374999,0.79374999 0 0 0 -0.09457,0.0057 v 2.717147 a 0.79374999,0.79374999 0 0 0 0.10542,-0.164331 c 0.226498,-0.471202 0.459297,-0.938773 0.697632,-1.402498 a 0.79374999,0.79374999 0 0 0 -0.343649,-1.068152 0.79374999,0.79374999 0 0 0 -0.364835,-0.08785 z m -5.676656,11.457182 a 0.79374999,0.79374999 0 0 0 0.832507,0.03514 0.79374999,0.79374999 0 0 0 0.05684,-0.03514 z" /><path
         d="m 14.854733,103.28908 q -0.702734,0 -1.303867,-0.2286 -0.592667,-0.2286 -1.032934,-0.64347 -0.4318,-0.41487 -0.677333,-0.97367 -0.237067,-0.5588 -0.237067,-1.2192 0,-0.660398 0.237067,-1.219198 0.245533,-0.5588 0.6858,-0.973667 0.440267,-0.414867 1.032934,-0.643467 0.592666,-0.2286 1.286933,-0.2286 0.702734,0 1.286934,0.2286 0.592667,0.2286 1.024467,0.643467 0.440267,0.414867 0.685801,0.973667 0.245533,0.550334 0.245533,1.219198 0,0.6604 -0.245533,1.22767 -0.245534,0.5588 -0.685801,0.97367 -0.4318,0.4064 -1.024467,0.635 -0.5842,0.2286 -1.278467,0.2286 z m -0.0085,-1.1684 q 0.397934,0 0.728134,-0.13547 0.338667,-0.13547 0.592667,-0.38947 0.254,-0.254 0.389467,-0.60113 0.143933,-0.34713 0.143933,-0.77047 0,-0.423331 -0.143933,-0.770464 -0.135467,-0.347134 -0.389467,-0.601134 -0.245534,-0.254 -0.5842,-0.389467 -0.338667,-0.135466 -0.736601,-0.135466 -0.397933,0 -0.7366,0.135466 -0.3302,0.135467 -0.5842,0.389467 -0.254,0.254 -0.397934,0.601134 -0.135466,0.347133 -0.135466,0.770464 0,0.41487 0.135466,0.77047 0.143934,0.34713 0.389467,0.60113 0.254,0.254 0.592667,0.38947 0.338667,0.13547 0.7366,0.13547 z m 4.275668,1.0668 v -5.926672 h 2.565401 q 0.795867,0 1.3716,0.262467 0.575734,0.254 0.889,0.7366 0.313267,0.4826 0.313267,1.151467 0,0.660398 -0.313267,1.142998 -0.313266,0.4826 -0.889,0.74507 -0.575733,0.254 -1.3716,0.254 h -1.803401 l 0.6096,-0.61807 v 2.25214 z m 1.3716,-2.09974 -0.6096,-0.65193 h 1.727201 q 0.635,0 0.948267,-0.27093 0.313266,-0.270938 0.313266,-0.753538 0,-0.491067 -0.313266,-0.762 -0.313267,-0.270933 -0.948267,-0.270933 h -1.727201 l 0.6096,-0.651934 z m 4.741337,2.09974 v -5.926672 h 4.478868 v 1.100667 h -3.115735 v 3.725335 h 3.225802 v 1.10067 z m 1.261533,-2.47227 v -1.066801 h 2.853268 v 1.066801 z m 4.419599,2.47227 v -5.926672 h 1.134534 l 3.496734,4.267202 h -0.550333 v -4.267202 h 1.354667 v 5.926672 h -1.126067 l -3.505201,-4.267205 h 0.550333 v 4.267205 z m 9.237148,0 v -5.926672 h 2.692401 q 0.965201,0 1.701801,0.372534 0.7366,0.364066 1.151467,1.024467 0.414867,0.6604 0.414867,1.566331 0,0.89747 -0.414867,1.56634 -0.414867,0.6604 -1.151467,1.03293 -0.7366,0.36407 -1.701801,0.36407 z m 1.371601,-1.12607 h 1.253067 q 0.592667,0 1.024467,-0.22013 0.440267,-0.2286 0.677334,-0.64347 0.245533,-0.41487 0.245533,-0.97367 0,-0.567264 -0.245533,-0.973664 -0.237067,-0.414867 -0.677334,-0.635001 -0.4318,-0.2286 -1.024467,-0.2286 h -1.253067 z m 6.841064,1.12607 v -2.42147 l 0.313266,0.82973 -2.607734,-4.334932 h 1.456267 l 1.998134,3.327402 h -0.8382 l 2.006601,-3.327402 h 1.3462 l -2.607734,4.334932 0.3048,-0.82973 v 2.42147 z m 4.157143,0 v -5.926672 h 1.134534 l 3.496735,4.267202 h -0.550334 v -4.267202 h 1.354667 v 5.926672 H 56.832461 L 53.32726,98.920275 h 0.550334 v 4.267205 z m 6.062143,0 2.641601,-5.926672 h 1.354667 l 2.650068,5.926672 h -1.439334 l -2.167468,-5.232405 h 0.541867 l -2.175934,5.232405 z m 1.3208,-1.27 0.364067,-1.0414 h 3.048001 l 0.372534,1.0414 z m 5.943607,1.27 v -5.926672 h 1.134534 l 2.523067,4.182532 h -0.601133 l 2.480734,-4.182532 h 1.126067 l 0.01693,5.926672 h -1.286934 l -0.0085,-3.953938 h 0.237067 l -1.981201,3.327398 H 68.87211 l -2.023534,-3.327398 h 0.287867 v 3.953938 z m 8.08567,0 v -5.926672 h 1.371601 v 5.926672 z m 5.613396,0.1016 q -0.6858,0 -1.278467,-0.22014 -0.5842,-0.2286 -1.016,-0.64346 -0.4318,-0.41487 -0.677334,-0.97367 -0.237067,-0.5588 -0.237067,-1.22767 0,-0.668864 0.237067,-1.227665 0.245534,-0.5588 0.677334,-0.973667 0.440267,-0.414866 1.024467,-0.635 0.5842,-0.2286 1.278467,-0.2286 0.770467,0 1.388534,0.270933 0.626533,0.262467 1.049867,0.778934 l -0.880534,0.8128 q -0.3048,-0.347133 -0.677333,-0.516466 -0.372534,-0.1778 -0.812801,-0.1778 -0.414867,0 -0.762,0.135466 -0.347133,0.135467 -0.601134,0.389467 -0.254,0.254 -0.397933,0.601134 -0.135467,0.347133 -0.135467,0.770464 0,0.42334 0.135467,0.77047 0.143933,0.34713 0.397933,0.60113 0.254001,0.254 0.601134,0.38947 0.347133,0.13547 0.762,0.13547 0.440267,0 0.812801,-0.16934 0.372533,-0.1778 0.677333,-0.5334 l 0.880534,0.8128 q -0.423334,0.51647 -1.049867,0.7874 -0.618067,0.27094 -1.397001,0.27094 z m 5.207008,0 q -0.7112,0 -1.363134,-0.18627 -0.651933,-0.19473 -1.049867,-0.49953 l 0.465667,-1.03294 q 0.381,0.27094 0.897467,0.44874 0.524934,0.16933 1.058334,0.16933 0.4064,0 0.651933,-0.0762 0.254001,-0.0847 0.372534,-0.2286 0.118533,-0.14393 0.118533,-0.3302 0,-0.23707 -0.186266,-0.37253 -0.186267,-0.14394 -0.491067,-0.2286 -0.3048,-0.0931 -0.677334,-0.16934 -0.364067,-0.0847 -0.7366,-0.2032 -0.364067,-0.11853 -0.668867,-0.3048 -0.3048,-0.18626 -0.499534,-0.491064 -0.186266,-0.3048 -0.186266,-0.778934 0,-0.508 0.270933,-0.922867 0.2794,-0.423333 0.829734,-0.668867 0.5588,-0.254 1.397,-0.254 0.558801,0 1.100667,0.135467 0.541867,0.127 0.956734,0.389467 l -0.423333,1.0414 q -0.414867,-0.237067 -0.829734,-0.347133 -0.414867,-0.118534 -0.8128,-0.118534 -0.397934,0 -0.651934,0.09313 -0.254,0.09313 -0.364067,0.245533 -0.110067,0.143933 -0.110067,0.338667 0,0.2286 0.186267,0.372533 0.186267,0.135467 0.491067,0.220134 0.3048,0.08467 0.668867,0.169333 0.372534,0.08467 0.7366,0.194733 0.372534,0.110072 0.677334,0.296342 0.3048,0.18626 0.491067,0.49106 0.194733,0.3048 0.194733,0.77047 0,0.49953 -0.2794,0.9144 -0.2794,0.41487 -0.8382,0.66887 -0.550334,0.254 -1.397001,0.254 z m 5.850487,-0.1016 v -5.926672 h 4.478869 v 1.100667 h -3.115735 v 3.725335 h 3.225801 v 1.10067 z m 1.261534,-2.47227 v -1.066801 h 2.853268 v 1.066801 z m 4.419596,2.47227 V 97.260808 H 97.4217 l 3.49674,4.267202 h -0.55034 v -4.267202 h 1.35467 v 5.926672 h -1.12607 l -3.5052,-4.267205 h 0.550334 v 4.267205 z m 9.702813,0.1016 q -0.70274,0 -1.2954,-0.22014 -0.5842,-0.2286 -1.02447,-0.64346 -0.4318,-0.41487 -0.67734,-0.97367 -0.23706,-0.5588 -0.23706,-1.22767 0,-0.668864 0.23706,-1.227665 0.24554,-0.5588 0.68581,-0.973667 0.44026,-0.414866 1.03293,-0.635 0.59267,-0.2286 1.30387,-0.2286 0.7874,0 1.41393,0.262467 0.635,0.262467 1.0668,0.762 l -0.88053,0.8128 q -0.32174,-0.338666 -0.70274,-0.499533 -0.381,-0.169333 -0.82973,-0.169333 -0.4318,0 -0.7874,0.135466 -0.3556,0.135467 -0.61807,0.389467 -0.254,0.254 -0.39793,0.601134 -0.13547,0.347133 -0.13547,0.770464 0,0.41487 0.13547,0.762 0.14393,0.34714 0.39793,0.6096 0.26247,0.254 0.6096,0.38947 0.3556,0.13547 0.77894,0.13547 0.4064,0 0.7874,-0.127 0.38946,-0.13547 0.75353,-0.44874 l 0.77893,0.9906 q -0.4826,0.36407 -1.12606,0.5588 -0.635,0.19474 -1.27,0.19474 z m 2.39606,-0.75354 -1.25306,-0.1778 v -2.22673 h 1.25306 z m 1.27,0.65194 v -5.926672 h 1.3716 v 5.926672 z m 2.77706,0 v -5.926672 h 1.13454 l 3.49673,4.267202 h -0.55033 v -4.267202 h 1.35467 v 5.926672 h -1.12607 l -3.5052,-4.267205 h 0.55033 v 4.267205 z m 6.84108,0 v -5.926672 h 4.47887 v 1.100667 h -3.11574 v 3.725335 h 3.2258 v 1.10067 z m 1.26153,-2.47227 v -1.066801 h 2.85327 v 1.066801 z"
         id="text5"
         style="font-weight:bold;font-size:8.46667px;font-family:Montserrat;-inkscape-font-specification:'Montserrat, Bold';fill:#4682b4;stroke-width:1.5875;stroke-linecap:round;stroke-linejoin:round;stroke-dasharray:1.5875, 4.7625;paint-order:stroke markers fill"
         inkscape:label="Open Dynamics Engine"
         aria-label="OPEN DYNAMICS ENGINE" /><path
         id="path9"
         clip-path="none"
         style="font-weight:900;font-size:46.2978px;font-family:Montserrat;-inkscape-font-specification:'Montserrat, Heavy';display:inline;fill:#4682b4;stroke-width:0.241134;stroke-linecap:square;stroke-linejoin:round"
         inkscape:label="DE"
         d="m 55.936639,56.899887 v 18.774566 l 0.0067,0.0093 a 0.79382936,0.79382936 0 0 1 0.0041,0.0057 c 0.273813,0.388133 0.534799,0.786435 0.782898,1.191658 a 0.79374999,0.79374999 0 0 1 -0.261483,1.091407 0.79374999,0.79374999 0 0 1 -0.532267,0.108003 v 11.228256 h 5.344377 a 0.79374999,0.79374999 0 0 1 -0.248047,-0.269751 c -0.267096,-0.476775 -0.515083,-0.956758 -0.75551,-1.435572 a 0.79374999,0.79374999 0 0 1 0.353467,-1.066084 0.79374999,0.79374999 0 0 1 0.605648,-0.04341 0.79374999,0.79374999 0 0 1 0.458887,0.396875 c 0.234449,0.466908 0.472265,0.926479 0.722436,1.373043 a 0.79374999,0.79374999 0 0 1 -0.24753,1.044898 h 9.738941 c 3.611228,0 6.7904,-0.648246 9.537402,-1.944584 2.747003,-1.327204 4.892006,-3.194757 6.435266,-5.602243 1.54326,-2.43835 2.315105,-5.323911 2.315105,-8.657352 0,-0.747564 -0.03801,-1.47164 -0.114205,-2.171961 -0.09167,-0.09652 -0.184246,-0.192126 -0.278019,-0.286287 a 0.79374999,0.79374999 0 0 1 0.0015,-1.122929 0.79374999,0.79374999 0 0 1 0.05581,-0.05013 C 89.498496,67.614093 88.838258,65.938513 87.881976,64.446714 86.338716,62.039228 84.193713,60.187319 81.44671,58.89098 78.699708,57.563777 75.520536,56.899887 71.909308,56.899887 Z m 38.242111,0 v 17.476454 a 0.79374999,0.79374999 0 0 1 0.168982,0.02584 0.79374999,0.79374999 0 0 1 0.482141,0.367419 l 0.129191,0.218592 a 0.79382936,0.79382936 0 0 1 0.0021,0.0062 c 0.223623,0.392204 0.444426,0.790725 0.656291,1.195276 a 0.79374999,0.79374999 0 0 1 -0.336414,1.070219 0.79374999,0.79374999 0 0 1 -1.070219,-0.334347 c -0.01071,-0.02046 -0.02127,-0.04053 -0.03204,-0.06098 V 89.308762 H 121.12391 V 81.067405 H 104.9197 v -3.189986 c -0.12801,0.362046 -0.25451,0.725388 -0.38086,1.089339 a 0.79374999,0.79374999 0 0 1 -1.00976,0.490409 0.79374999,0.79374999 0 0 1 -0.48989,-1.011824 c 0.17403,-0.501305 0.3493,-1.002043 0.52917,-1.503784 a 0.79374999,0.79374999 0 0 1 1.01544,-0.480591 0.79374999,0.79374999 0 0 1 0.41755,0.347265 h 13.62242 V 68.937396 H 104.9197 v -3.796151 h 3.89175 a 0.79374999,0.79374999 0 0 1 0.44442,-0.297656 0.79374999,0.79374999 0 0 1 0.59944,0.08785 0.79374999,0.79374999 0 0 1 0.23151,0.209806 h 10.43554 v -8.241358 z m 24.87032,0.514181 a 0.79374999,0.79374999 0 0 1 0.80667,0.781348 0.79374999,0.79374999 0 0 1 -0.77928,0.806669 l -0.2403,0.0041 -0.22273,0.01137 -0.22272,0.01964 -0.21859,0.02532 -0.21859,0.03514 -0.21498,0.04134 -0.0765,0.0155 a 0.79374999,0.79374999 0 0 1 -0.94878,-0.599446 0.79374999,0.79374999 0 0 1 0.59945,-0.949296 l 0.0899,-0.01964 a 0.79382936,0.79382936 0 0 1 0.0253,-0.0062 l 0.24236,-0.04444 a 0.79382936,0.79382936 0 0 1 0.0269,-0.0041 l 0.24443,-0.03927 a 0.79382936,0.79382936 0 0 1 0.0274,-0.0036 l 0.24598,-0.02946 a 0.79382936,0.79382936 0 0 1 0.0274,-0.0021 l 0.24804,-0.02119 a 0.79382936,0.79382936 0 0 1 0.0269,-0.0021 l 0.25218,-0.01395 a 0.79382936,0.79382936 0 0 1 0.0253,0 z m -5.65237,2.428792 a 0.79374999,0.79374999 0 0 1 0.54674,0.262517 0.79374999,0.79374999 0 0 1 -0.0605,1.121378 c -0.37123,0.33218 -0.72541,0.688618 -1.06246,1.062468 a 0.79374999,0.79374999 0 0 1 -1.12138,0.05633 0.79374999,0.79374999 0 0 1 -0.0584,-1.120862 c 0.37154,-0.412113 0.76591,-0.808288 1.18339,-1.18184 a 0.79374999,0.79374999 0 0 1 0.57258,-0.199988 z m -33.009873,5.567619 a 0.79374999,0.79374999 0 0 1 0.765328,0.712618 0.79374999,0.79374999 0 0 1 -0.709001,0.869198 c -0.347576,0.03555 -0.694609,0.094 -1.042831,0.170015 l -0.234094,0.05478 -0.164331,0.04289 a 0.79374999,0.79374999 0 0 1 -0.966866,-0.570508 0.79374999,0.79374999 0 0 1 0.570508,-0.966866 l 0.173633,-0.04496 a 0.79382936,0.79382936 0 0 1 0.01757,-0.0057 l 0.242362,-0.05478 a 0.79382936,0.79382936 0 0 1 0.01189,-0.0041 c 0.403385,-0.08844 0.813896,-0.156184 1.231966,-0.198954 a 0.79374999,0.79374999 0 0 1 0.10387,-0.0036 z m -13.523723,0.0083 h 4.583183 c 1.54326,0 2.886166,0.293611 4.028178,0.880049 1.172878,0.586439 2.083447,1.450595 2.731616,2.592607 0.648169,1.142013 0.972034,2.546459 0.972034,4.21318 0,1.635855 -0.323865,3.039784 -0.972034,4.212662 -0.648169,1.142012 -1.558738,2.006685 -2.731616,2.593124 -1.142012,0.586439 -2.484918,0.879533 -4.028178,0.879533 h -4.583183 v -0.215491 a 0.79374999,0.79374999 0 0 1 -0.952914,0.206706 0.79374999,0.79374999 0 0 1 -0.371036,-1.058334 c 0.231996,-0.48264 0.469243,-0.964219 0.714685,-1.441772 a 0.79374999,0.79374999 0 0 1 0.609265,-0.423747 z m 18.241781,0.489892 a 0.79374999,0.79374999 0 0 1 0.203605,0.03669 c 0.541911,0.173753 1.066921,0.388158 1.574064,0.633037 a 0.79374999,0.79374999 0 0 1 0.369487,1.0604 0.79374999,0.79374999 0 0 1 -1.05885,0.36897 c -0.445763,-0.21524 -0.903007,-0.401488 -1.368909,-0.550871 a 0.79374999,0.79374999 0 0 1 -0.513664,-0.997872 0.79374999,0.79374999 0 0 1 0.794267,-0.550354 z m 21.520135,4.588867 a 0.79374999,0.79374999 0 0 1 0.30282,0.06511 0.79374999,0.79374999 0 0 1 0.416,1.04283 l -0.11524,0.265617 -0.26562,0.634587 -0.22686,0.55087 a 0.79374999,0.79374999 0 0 1 -1.03508,0.433566 0.79374999,0.79374999 0 0 1 -0.43356,-1.035079 l 0.22634,-0.552938 a 0.79382936,0.79382936 0 0 1 0.002,-0.0078 l 0.26975,-0.640271 a 0.79382936,0.79382936 0 0 1 0.004,-0.0078 l 0.11524,-0.269751 a 0.79374999,0.79374999 0 0 1 0.74001,-0.479041 z m -9.687782,9.569959 a 0.79374999,0.79374999 0 0 1 0.740523,0.47749 c 0.210704,0.486287 0.41003,0.971269 0.609265,1.449008 a 0.79382936,0.79382936 0 0 1 0.0021,0.0062 l 0.0098,0.02532 a 0.79374999,0.79374999 0 0 1 -0.433565,1.035079 0.79374999,0.79374999 0 0 1 -1.035079,-0.435632 l -0.0078,-0.01964 c -0.201176,-0.48239 -0.399121,-0.959522 -0.60203,-1.42782 a 0.79374999,0.79374999 0 0 1 0.414445,-1.044898 0.79374999,0.79374999 0 0 1 0.302307,-0.06511 z m -38.693763,0.639238 a 0.79374999,0.79374999 0 0 1 0.75861,0.449585 l 0.111104,0.236161 a 0.79382936,0.79382936 0 0 1 0.0041,0.0062 l 0.353467,0.753442 a 0.79382936,0.79382936 0 0 1 0.0021,0.0041 l 0.206706,0.447518 a 0.79374999,0.79374999 0 0 1 -0.38654,1.054199 0.79374999,0.79374999 0 0 1 -1.054716,-0.38654 l -0.205155,-0.445451 -0.3514,-0.749825 -0.111621,-0.232544 a 0.79374999,0.79374999 0 0 1 0.373104,-1.0604 0.79374999,0.79374999 0 0 1 0.30024,-0.07648 z m 43.955455,1.716174 a 0.79374999,0.79374999 0 0 1 0.30696,0.03979 0.79374999,0.79374999 0 0 1 0.49609,1.00614 l -0.0506,0.152445 a 0.79382936,0.79382936 0 0 1 -0.002,0.0036 l -0.36742,1.064534 a 0.79382936,0.79382936 0 0 1 0,0.0041 l -0.0997,0.283187 a 0.79374999,0.79374999 0 0 1 -1.01131,0.486276 0.79374999,0.79374999 0 0 1 -0.48627,-1.011825 l 0.0977,-0.28112 0.36691,-1.060917 0.0506,-0.150378 a 0.79374999,0.79374999 0 0 1 0.69918,-0.535885 z m -37.885025,1.195276 a 0.79374999,0.79374999 0 0 1 0.303341,0.06356 0.79374999,0.79374999 0 0 1 0.418062,1.040763 C 64.829387,85.205864 64.6268,85.69194 64.423976,86.179784 A 0.79374999,0.79374999 0 0 1 63.38683,86.607636 0.79374999,0.79374999 0 0 1 62.956882,85.57049 c 0.203469,-0.489393 0.408652,-0.980406 0.617534,-1.470712 a 0.79374999,0.79374999 0 0 1 0.435115,-0.423746 v -5.17e-4 a 0.79374999,0.79374999 0 0 1 0.304374,-0.05736 z m 35.037139,2.32854 a 0.79374999,0.79374999 0 0 1 0.731226,0.492993 c 0.19903,0.485829 0.40094,0.966396 0.61133,1.439189 a 0.79374999,0.79374999 0 0 1 -0.40256,1.049031 0.79374999,0.79374999 0 0 1 -1.049033,-0.402559 c -0.219887,-0.494134 -0.42674,-0.990681 -0.628902,-1.484147 a 0.79374999,0.79374999 0 0 1 0.433565,-1.035596 0.79374999,0.79374999 0 0 1 0.304374,-0.05891 z" /></g><path
       style="display:none;fill:none;fill-opacity:1;stroke:#ffffff;stroke-width:1.5875;stroke-linecap:round;stroke-linejoin:round;stroke-dasharray:1.5875, 4.7625;stroke-dashoffset:0;stroke-opacity:1;paint-order:stroke markers fill"
       d="m 119.06251,58.208354 c -10.84792,0 -15.63062,23.752142 -18.88464,30.460158 C 97.02391,81.824865 93.03083,66.413616 81.756252,66.145855 70.481677,65.878093 65.087502,83.079188 62.177086,89.429188 58.472919,83.343771 55.40613,70.931114 48.418752,72.495855"
       id="path8"
       sodipodi:nodetypes="cczcc"
       inkscape:label="trajectory" /></g></svg>
